%TF.GenerationSoftware,KiCad,Pcbnew,(5.1.9)-1*%
%TF.CreationDate,2021-06-10T11:00:13+02:00*%
%TF.ProjectId,20_Multiprise_JST_3pins,32305f4d-756c-4746-9970-726973655f4a,rev?*%
%TF.SameCoordinates,Original*%
%TF.FileFunction,Other,Fab,Top*%
%FSLAX46Y46*%
G04 Gerber Fmt 4.6, Leading zero omitted, Abs format (unit mm)*
G04 Created by KiCad (PCBNEW (5.1.9)-1) date 2021-06-10 11:00:13*
%MOMM*%
%LPD*%
G01*
G04 APERTURE LIST*
%TA.AperFunction,Profile*%
%ADD10C,0.150000*%
%TD*%
%ADD11C,0.100000*%
%ADD12C,0.150000*%
G04 APERTURE END LIST*
D10*
X145000000Y-133000000D02*
X145000000Y-122000000D01*
X180000000Y-133000000D02*
X145000000Y-133000000D01*
X180000000Y-122000000D02*
X180000000Y-133000000D01*
X145000000Y-122000000D02*
X180000000Y-122000000D01*
D11*
%TO.C,J1*%
X150350000Y-125000000D02*
X151350000Y-125625000D01*
X151350000Y-124375000D02*
X150350000Y-125000000D01*
X151350000Y-132450000D02*
X151350000Y-122550000D01*
X145600000Y-132450000D02*
X151350000Y-132450000D01*
X145600000Y-122550000D02*
X145600000Y-132450000D01*
X151350000Y-122550000D02*
X145600000Y-122550000D01*
%TO.C,J2*%
X158350000Y-122550000D02*
X152600000Y-122550000D01*
X152600000Y-122550000D02*
X152600000Y-132450000D01*
X152600000Y-132450000D02*
X158350000Y-132450000D01*
X158350000Y-132450000D02*
X158350000Y-122550000D01*
X158350000Y-124375000D02*
X157350000Y-125000000D01*
X157350000Y-125000000D02*
X158350000Y-125625000D01*
%TO.C,J3*%
X164350000Y-125000000D02*
X165350000Y-125625000D01*
X165350000Y-124375000D02*
X164350000Y-125000000D01*
X165350000Y-132450000D02*
X165350000Y-122550000D01*
X159600000Y-132450000D02*
X165350000Y-132450000D01*
X159600000Y-122550000D02*
X159600000Y-132450000D01*
X165350000Y-122550000D02*
X159600000Y-122550000D01*
%TO.C,J4*%
X172350000Y-122550000D02*
X166600000Y-122550000D01*
X166600000Y-122550000D02*
X166600000Y-132450000D01*
X166600000Y-132450000D02*
X172350000Y-132450000D01*
X172350000Y-132450000D02*
X172350000Y-122550000D01*
X172350000Y-124375000D02*
X171350000Y-125000000D01*
X171350000Y-125000000D02*
X172350000Y-125625000D01*
%TO.C,J5*%
X178350000Y-125000000D02*
X179350000Y-125625000D01*
X179350000Y-124375000D02*
X178350000Y-125000000D01*
X179350000Y-132450000D02*
X179350000Y-122550000D01*
X173600000Y-132450000D02*
X179350000Y-132450000D01*
X173600000Y-122550000D02*
X173600000Y-132450000D01*
X179350000Y-122550000D02*
X173600000Y-122550000D01*
%TD*%
%TO.C,J1*%
D12*
X144757142Y-131238095D02*
X144804761Y-131285714D01*
X144852380Y-131428571D01*
X144852380Y-131523809D01*
X144804761Y-131666666D01*
X144709523Y-131761904D01*
X144614285Y-131809523D01*
X144423809Y-131857142D01*
X144280952Y-131857142D01*
X144090476Y-131809523D01*
X143995238Y-131761904D01*
X143900000Y-131666666D01*
X143852380Y-131523809D01*
X143852380Y-131428571D01*
X143900000Y-131285714D01*
X143947619Y-131238095D01*
X144852380Y-130666666D02*
X144804761Y-130761904D01*
X144757142Y-130809523D01*
X144661904Y-130857142D01*
X144376190Y-130857142D01*
X144280952Y-130809523D01*
X144233333Y-130761904D01*
X144185714Y-130666666D01*
X144185714Y-130523809D01*
X144233333Y-130428571D01*
X144280952Y-130380952D01*
X144376190Y-130333333D01*
X144661904Y-130333333D01*
X144757142Y-130380952D01*
X144804761Y-130428571D01*
X144852380Y-130523809D01*
X144852380Y-130666666D01*
X144185714Y-129904761D02*
X144852380Y-129904761D01*
X144280952Y-129904761D02*
X144233333Y-129857142D01*
X144185714Y-129761904D01*
X144185714Y-129619047D01*
X144233333Y-129523809D01*
X144328571Y-129476190D01*
X144852380Y-129476190D01*
X144185714Y-129000000D02*
X144852380Y-129000000D01*
X144280952Y-129000000D02*
X144233333Y-128952380D01*
X144185714Y-128857142D01*
X144185714Y-128714285D01*
X144233333Y-128619047D01*
X144328571Y-128571428D01*
X144852380Y-128571428D01*
X144947619Y-128333333D02*
X144947619Y-127571428D01*
X143852380Y-127142857D02*
X143852380Y-127047619D01*
X143900000Y-126952380D01*
X143947619Y-126904761D01*
X144042857Y-126857142D01*
X144233333Y-126809523D01*
X144471428Y-126809523D01*
X144661904Y-126857142D01*
X144757142Y-126904761D01*
X144804761Y-126952380D01*
X144852380Y-127047619D01*
X144852380Y-127142857D01*
X144804761Y-127238095D01*
X144757142Y-127285714D01*
X144661904Y-127333333D01*
X144471428Y-127380952D01*
X144233333Y-127380952D01*
X144042857Y-127333333D01*
X143947619Y-127285714D01*
X143900000Y-127238095D01*
X143852380Y-127142857D01*
X144852380Y-125857142D02*
X144852380Y-126428571D01*
X144852380Y-126142857D02*
X143852380Y-126142857D01*
X143995238Y-126238095D01*
X144090476Y-126333333D01*
X144138095Y-126428571D01*
X144852380Y-125523809D02*
X144185714Y-125000000D01*
X144185714Y-125523809D02*
X144852380Y-125000000D01*
X143852380Y-124428571D02*
X143852380Y-124333333D01*
X143900000Y-124238095D01*
X143947619Y-124190476D01*
X144042857Y-124142857D01*
X144233333Y-124095238D01*
X144471428Y-124095238D01*
X144661904Y-124142857D01*
X144757142Y-124190476D01*
X144804761Y-124238095D01*
X144852380Y-124333333D01*
X144852380Y-124428571D01*
X144804761Y-124523809D01*
X144757142Y-124571428D01*
X144661904Y-124619047D01*
X144471428Y-124666666D01*
X144233333Y-124666666D01*
X144042857Y-124619047D01*
X143947619Y-124571428D01*
X143900000Y-124523809D01*
X143852380Y-124428571D01*
X143852380Y-123761904D02*
X143852380Y-123142857D01*
X144233333Y-123476190D01*
X144233333Y-123333333D01*
X144280952Y-123238095D01*
X144328571Y-123190476D01*
X144423809Y-123142857D01*
X144661904Y-123142857D01*
X144757142Y-123190476D01*
X144804761Y-123238095D01*
X144852380Y-123333333D01*
X144852380Y-123619047D01*
X144804761Y-123714285D01*
X144757142Y-123761904D01*
X145752380Y-127833333D02*
X146466666Y-127833333D01*
X146609523Y-127880952D01*
X146704761Y-127976190D01*
X146752380Y-128119047D01*
X146752380Y-128214285D01*
X146752380Y-126833333D02*
X146752380Y-127404761D01*
X146752380Y-127119047D02*
X145752380Y-127119047D01*
X145895238Y-127214285D01*
X145990476Y-127309523D01*
X146038095Y-127404761D01*
%TO.C,J2*%
X151757142Y-131238095D02*
X151804761Y-131285714D01*
X151852380Y-131428571D01*
X151852380Y-131523809D01*
X151804761Y-131666666D01*
X151709523Y-131761904D01*
X151614285Y-131809523D01*
X151423809Y-131857142D01*
X151280952Y-131857142D01*
X151090476Y-131809523D01*
X150995238Y-131761904D01*
X150900000Y-131666666D01*
X150852380Y-131523809D01*
X150852380Y-131428571D01*
X150900000Y-131285714D01*
X150947619Y-131238095D01*
X151852380Y-130666666D02*
X151804761Y-130761904D01*
X151757142Y-130809523D01*
X151661904Y-130857142D01*
X151376190Y-130857142D01*
X151280952Y-130809523D01*
X151233333Y-130761904D01*
X151185714Y-130666666D01*
X151185714Y-130523809D01*
X151233333Y-130428571D01*
X151280952Y-130380952D01*
X151376190Y-130333333D01*
X151661904Y-130333333D01*
X151757142Y-130380952D01*
X151804761Y-130428571D01*
X151852380Y-130523809D01*
X151852380Y-130666666D01*
X151185714Y-129904761D02*
X151852380Y-129904761D01*
X151280952Y-129904761D02*
X151233333Y-129857142D01*
X151185714Y-129761904D01*
X151185714Y-129619047D01*
X151233333Y-129523809D01*
X151328571Y-129476190D01*
X151852380Y-129476190D01*
X151185714Y-129000000D02*
X151852380Y-129000000D01*
X151280952Y-129000000D02*
X151233333Y-128952380D01*
X151185714Y-128857142D01*
X151185714Y-128714285D01*
X151233333Y-128619047D01*
X151328571Y-128571428D01*
X151852380Y-128571428D01*
X151947619Y-128333333D02*
X151947619Y-127571428D01*
X150852380Y-127142857D02*
X150852380Y-127047619D01*
X150900000Y-126952380D01*
X150947619Y-126904761D01*
X151042857Y-126857142D01*
X151233333Y-126809523D01*
X151471428Y-126809523D01*
X151661904Y-126857142D01*
X151757142Y-126904761D01*
X151804761Y-126952380D01*
X151852380Y-127047619D01*
X151852380Y-127142857D01*
X151804761Y-127238095D01*
X151757142Y-127285714D01*
X151661904Y-127333333D01*
X151471428Y-127380952D01*
X151233333Y-127380952D01*
X151042857Y-127333333D01*
X150947619Y-127285714D01*
X150900000Y-127238095D01*
X150852380Y-127142857D01*
X151852380Y-125857142D02*
X151852380Y-126428571D01*
X151852380Y-126142857D02*
X150852380Y-126142857D01*
X150995238Y-126238095D01*
X151090476Y-126333333D01*
X151138095Y-126428571D01*
X151852380Y-125523809D02*
X151185714Y-125000000D01*
X151185714Y-125523809D02*
X151852380Y-125000000D01*
X150852380Y-124428571D02*
X150852380Y-124333333D01*
X150900000Y-124238095D01*
X150947619Y-124190476D01*
X151042857Y-124142857D01*
X151233333Y-124095238D01*
X151471428Y-124095238D01*
X151661904Y-124142857D01*
X151757142Y-124190476D01*
X151804761Y-124238095D01*
X151852380Y-124333333D01*
X151852380Y-124428571D01*
X151804761Y-124523809D01*
X151757142Y-124571428D01*
X151661904Y-124619047D01*
X151471428Y-124666666D01*
X151233333Y-124666666D01*
X151042857Y-124619047D01*
X150947619Y-124571428D01*
X150900000Y-124523809D01*
X150852380Y-124428571D01*
X150852380Y-123761904D02*
X150852380Y-123142857D01*
X151233333Y-123476190D01*
X151233333Y-123333333D01*
X151280952Y-123238095D01*
X151328571Y-123190476D01*
X151423809Y-123142857D01*
X151661904Y-123142857D01*
X151757142Y-123190476D01*
X151804761Y-123238095D01*
X151852380Y-123333333D01*
X151852380Y-123619047D01*
X151804761Y-123714285D01*
X151757142Y-123761904D01*
X152752380Y-127833333D02*
X153466666Y-127833333D01*
X153609523Y-127880952D01*
X153704761Y-127976190D01*
X153752380Y-128119047D01*
X153752380Y-128214285D01*
X152847619Y-127404761D02*
X152800000Y-127357142D01*
X152752380Y-127261904D01*
X152752380Y-127023809D01*
X152800000Y-126928571D01*
X152847619Y-126880952D01*
X152942857Y-126833333D01*
X153038095Y-126833333D01*
X153180952Y-126880952D01*
X153752380Y-127452380D01*
X153752380Y-126833333D01*
%TO.C,J3*%
X158757142Y-131238095D02*
X158804761Y-131285714D01*
X158852380Y-131428571D01*
X158852380Y-131523809D01*
X158804761Y-131666666D01*
X158709523Y-131761904D01*
X158614285Y-131809523D01*
X158423809Y-131857142D01*
X158280952Y-131857142D01*
X158090476Y-131809523D01*
X157995238Y-131761904D01*
X157900000Y-131666666D01*
X157852380Y-131523809D01*
X157852380Y-131428571D01*
X157900000Y-131285714D01*
X157947619Y-131238095D01*
X158852380Y-130666666D02*
X158804761Y-130761904D01*
X158757142Y-130809523D01*
X158661904Y-130857142D01*
X158376190Y-130857142D01*
X158280952Y-130809523D01*
X158233333Y-130761904D01*
X158185714Y-130666666D01*
X158185714Y-130523809D01*
X158233333Y-130428571D01*
X158280952Y-130380952D01*
X158376190Y-130333333D01*
X158661904Y-130333333D01*
X158757142Y-130380952D01*
X158804761Y-130428571D01*
X158852380Y-130523809D01*
X158852380Y-130666666D01*
X158185714Y-129904761D02*
X158852380Y-129904761D01*
X158280952Y-129904761D02*
X158233333Y-129857142D01*
X158185714Y-129761904D01*
X158185714Y-129619047D01*
X158233333Y-129523809D01*
X158328571Y-129476190D01*
X158852380Y-129476190D01*
X158185714Y-129000000D02*
X158852380Y-129000000D01*
X158280952Y-129000000D02*
X158233333Y-128952380D01*
X158185714Y-128857142D01*
X158185714Y-128714285D01*
X158233333Y-128619047D01*
X158328571Y-128571428D01*
X158852380Y-128571428D01*
X158947619Y-128333333D02*
X158947619Y-127571428D01*
X157852380Y-127142857D02*
X157852380Y-127047619D01*
X157900000Y-126952380D01*
X157947619Y-126904761D01*
X158042857Y-126857142D01*
X158233333Y-126809523D01*
X158471428Y-126809523D01*
X158661904Y-126857142D01*
X158757142Y-126904761D01*
X158804761Y-126952380D01*
X158852380Y-127047619D01*
X158852380Y-127142857D01*
X158804761Y-127238095D01*
X158757142Y-127285714D01*
X158661904Y-127333333D01*
X158471428Y-127380952D01*
X158233333Y-127380952D01*
X158042857Y-127333333D01*
X157947619Y-127285714D01*
X157900000Y-127238095D01*
X157852380Y-127142857D01*
X158852380Y-125857142D02*
X158852380Y-126428571D01*
X158852380Y-126142857D02*
X157852380Y-126142857D01*
X157995238Y-126238095D01*
X158090476Y-126333333D01*
X158138095Y-126428571D01*
X158852380Y-125523809D02*
X158185714Y-125000000D01*
X158185714Y-125523809D02*
X158852380Y-125000000D01*
X157852380Y-124428571D02*
X157852380Y-124333333D01*
X157900000Y-124238095D01*
X157947619Y-124190476D01*
X158042857Y-124142857D01*
X158233333Y-124095238D01*
X158471428Y-124095238D01*
X158661904Y-124142857D01*
X158757142Y-124190476D01*
X158804761Y-124238095D01*
X158852380Y-124333333D01*
X158852380Y-124428571D01*
X158804761Y-124523809D01*
X158757142Y-124571428D01*
X158661904Y-124619047D01*
X158471428Y-124666666D01*
X158233333Y-124666666D01*
X158042857Y-124619047D01*
X157947619Y-124571428D01*
X157900000Y-124523809D01*
X157852380Y-124428571D01*
X157852380Y-123761904D02*
X157852380Y-123142857D01*
X158233333Y-123476190D01*
X158233333Y-123333333D01*
X158280952Y-123238095D01*
X158328571Y-123190476D01*
X158423809Y-123142857D01*
X158661904Y-123142857D01*
X158757142Y-123190476D01*
X158804761Y-123238095D01*
X158852380Y-123333333D01*
X158852380Y-123619047D01*
X158804761Y-123714285D01*
X158757142Y-123761904D01*
X159752380Y-127833333D02*
X160466666Y-127833333D01*
X160609523Y-127880952D01*
X160704761Y-127976190D01*
X160752380Y-128119047D01*
X160752380Y-128214285D01*
X159752380Y-127452380D02*
X159752380Y-126833333D01*
X160133333Y-127166666D01*
X160133333Y-127023809D01*
X160180952Y-126928571D01*
X160228571Y-126880952D01*
X160323809Y-126833333D01*
X160561904Y-126833333D01*
X160657142Y-126880952D01*
X160704761Y-126928571D01*
X160752380Y-127023809D01*
X160752380Y-127309523D01*
X160704761Y-127404761D01*
X160657142Y-127452380D01*
%TO.C,J4*%
X165757142Y-131238095D02*
X165804761Y-131285714D01*
X165852380Y-131428571D01*
X165852380Y-131523809D01*
X165804761Y-131666666D01*
X165709523Y-131761904D01*
X165614285Y-131809523D01*
X165423809Y-131857142D01*
X165280952Y-131857142D01*
X165090476Y-131809523D01*
X164995238Y-131761904D01*
X164900000Y-131666666D01*
X164852380Y-131523809D01*
X164852380Y-131428571D01*
X164900000Y-131285714D01*
X164947619Y-131238095D01*
X165852380Y-130666666D02*
X165804761Y-130761904D01*
X165757142Y-130809523D01*
X165661904Y-130857142D01*
X165376190Y-130857142D01*
X165280952Y-130809523D01*
X165233333Y-130761904D01*
X165185714Y-130666666D01*
X165185714Y-130523809D01*
X165233333Y-130428571D01*
X165280952Y-130380952D01*
X165376190Y-130333333D01*
X165661904Y-130333333D01*
X165757142Y-130380952D01*
X165804761Y-130428571D01*
X165852380Y-130523809D01*
X165852380Y-130666666D01*
X165185714Y-129904761D02*
X165852380Y-129904761D01*
X165280952Y-129904761D02*
X165233333Y-129857142D01*
X165185714Y-129761904D01*
X165185714Y-129619047D01*
X165233333Y-129523809D01*
X165328571Y-129476190D01*
X165852380Y-129476190D01*
X165185714Y-129000000D02*
X165852380Y-129000000D01*
X165280952Y-129000000D02*
X165233333Y-128952380D01*
X165185714Y-128857142D01*
X165185714Y-128714285D01*
X165233333Y-128619047D01*
X165328571Y-128571428D01*
X165852380Y-128571428D01*
X165947619Y-128333333D02*
X165947619Y-127571428D01*
X164852380Y-127142857D02*
X164852380Y-127047619D01*
X164900000Y-126952380D01*
X164947619Y-126904761D01*
X165042857Y-126857142D01*
X165233333Y-126809523D01*
X165471428Y-126809523D01*
X165661904Y-126857142D01*
X165757142Y-126904761D01*
X165804761Y-126952380D01*
X165852380Y-127047619D01*
X165852380Y-127142857D01*
X165804761Y-127238095D01*
X165757142Y-127285714D01*
X165661904Y-127333333D01*
X165471428Y-127380952D01*
X165233333Y-127380952D01*
X165042857Y-127333333D01*
X164947619Y-127285714D01*
X164900000Y-127238095D01*
X164852380Y-127142857D01*
X165852380Y-125857142D02*
X165852380Y-126428571D01*
X165852380Y-126142857D02*
X164852380Y-126142857D01*
X164995238Y-126238095D01*
X165090476Y-126333333D01*
X165138095Y-126428571D01*
X165852380Y-125523809D02*
X165185714Y-125000000D01*
X165185714Y-125523809D02*
X165852380Y-125000000D01*
X164852380Y-124428571D02*
X164852380Y-124333333D01*
X164900000Y-124238095D01*
X164947619Y-124190476D01*
X165042857Y-124142857D01*
X165233333Y-124095238D01*
X165471428Y-124095238D01*
X165661904Y-124142857D01*
X165757142Y-124190476D01*
X165804761Y-124238095D01*
X165852380Y-124333333D01*
X165852380Y-124428571D01*
X165804761Y-124523809D01*
X165757142Y-124571428D01*
X165661904Y-124619047D01*
X165471428Y-124666666D01*
X165233333Y-124666666D01*
X165042857Y-124619047D01*
X164947619Y-124571428D01*
X164900000Y-124523809D01*
X164852380Y-124428571D01*
X164852380Y-123761904D02*
X164852380Y-123142857D01*
X165233333Y-123476190D01*
X165233333Y-123333333D01*
X165280952Y-123238095D01*
X165328571Y-123190476D01*
X165423809Y-123142857D01*
X165661904Y-123142857D01*
X165757142Y-123190476D01*
X165804761Y-123238095D01*
X165852380Y-123333333D01*
X165852380Y-123619047D01*
X165804761Y-123714285D01*
X165757142Y-123761904D01*
X166752380Y-127833333D02*
X167466666Y-127833333D01*
X167609523Y-127880952D01*
X167704761Y-127976190D01*
X167752380Y-128119047D01*
X167752380Y-128214285D01*
X167085714Y-126928571D02*
X167752380Y-126928571D01*
X166704761Y-127166666D02*
X167419047Y-127404761D01*
X167419047Y-126785714D01*
%TO.C,J5*%
X172757142Y-131238095D02*
X172804761Y-131285714D01*
X172852380Y-131428571D01*
X172852380Y-131523809D01*
X172804761Y-131666666D01*
X172709523Y-131761904D01*
X172614285Y-131809523D01*
X172423809Y-131857142D01*
X172280952Y-131857142D01*
X172090476Y-131809523D01*
X171995238Y-131761904D01*
X171900000Y-131666666D01*
X171852380Y-131523809D01*
X171852380Y-131428571D01*
X171900000Y-131285714D01*
X171947619Y-131238095D01*
X172852380Y-130666666D02*
X172804761Y-130761904D01*
X172757142Y-130809523D01*
X172661904Y-130857142D01*
X172376190Y-130857142D01*
X172280952Y-130809523D01*
X172233333Y-130761904D01*
X172185714Y-130666666D01*
X172185714Y-130523809D01*
X172233333Y-130428571D01*
X172280952Y-130380952D01*
X172376190Y-130333333D01*
X172661904Y-130333333D01*
X172757142Y-130380952D01*
X172804761Y-130428571D01*
X172852380Y-130523809D01*
X172852380Y-130666666D01*
X172185714Y-129904761D02*
X172852380Y-129904761D01*
X172280952Y-129904761D02*
X172233333Y-129857142D01*
X172185714Y-129761904D01*
X172185714Y-129619047D01*
X172233333Y-129523809D01*
X172328571Y-129476190D01*
X172852380Y-129476190D01*
X172185714Y-129000000D02*
X172852380Y-129000000D01*
X172280952Y-129000000D02*
X172233333Y-128952380D01*
X172185714Y-128857142D01*
X172185714Y-128714285D01*
X172233333Y-128619047D01*
X172328571Y-128571428D01*
X172852380Y-128571428D01*
X172947619Y-128333333D02*
X172947619Y-127571428D01*
X171852380Y-127142857D02*
X171852380Y-127047619D01*
X171900000Y-126952380D01*
X171947619Y-126904761D01*
X172042857Y-126857142D01*
X172233333Y-126809523D01*
X172471428Y-126809523D01*
X172661904Y-126857142D01*
X172757142Y-126904761D01*
X172804761Y-126952380D01*
X172852380Y-127047619D01*
X172852380Y-127142857D01*
X172804761Y-127238095D01*
X172757142Y-127285714D01*
X172661904Y-127333333D01*
X172471428Y-127380952D01*
X172233333Y-127380952D01*
X172042857Y-127333333D01*
X171947619Y-127285714D01*
X171900000Y-127238095D01*
X171852380Y-127142857D01*
X172852380Y-125857142D02*
X172852380Y-126428571D01*
X172852380Y-126142857D02*
X171852380Y-126142857D01*
X171995238Y-126238095D01*
X172090476Y-126333333D01*
X172138095Y-126428571D01*
X172852380Y-125523809D02*
X172185714Y-125000000D01*
X172185714Y-125523809D02*
X172852380Y-125000000D01*
X171852380Y-124428571D02*
X171852380Y-124333333D01*
X171900000Y-124238095D01*
X171947619Y-124190476D01*
X172042857Y-124142857D01*
X172233333Y-124095238D01*
X172471428Y-124095238D01*
X172661904Y-124142857D01*
X172757142Y-124190476D01*
X172804761Y-124238095D01*
X172852380Y-124333333D01*
X172852380Y-124428571D01*
X172804761Y-124523809D01*
X172757142Y-124571428D01*
X172661904Y-124619047D01*
X172471428Y-124666666D01*
X172233333Y-124666666D01*
X172042857Y-124619047D01*
X171947619Y-124571428D01*
X171900000Y-124523809D01*
X171852380Y-124428571D01*
X171852380Y-123761904D02*
X171852380Y-123142857D01*
X172233333Y-123476190D01*
X172233333Y-123333333D01*
X172280952Y-123238095D01*
X172328571Y-123190476D01*
X172423809Y-123142857D01*
X172661904Y-123142857D01*
X172757142Y-123190476D01*
X172804761Y-123238095D01*
X172852380Y-123333333D01*
X172852380Y-123619047D01*
X172804761Y-123714285D01*
X172757142Y-123761904D01*
X173752380Y-127833333D02*
X174466666Y-127833333D01*
X174609523Y-127880952D01*
X174704761Y-127976190D01*
X174752380Y-128119047D01*
X174752380Y-128214285D01*
X173752380Y-126880952D02*
X173752380Y-127357142D01*
X174228571Y-127404761D01*
X174180952Y-127357142D01*
X174133333Y-127261904D01*
X174133333Y-127023809D01*
X174180952Y-126928571D01*
X174228571Y-126880952D01*
X174323809Y-126833333D01*
X174561904Y-126833333D01*
X174657142Y-126880952D01*
X174704761Y-126928571D01*
X174752380Y-127023809D01*
X174752380Y-127261904D01*
X174704761Y-127357142D01*
X174657142Y-127404761D01*
%TD*%
M02*
